<svg width="39" height="49" viewBox="0 0 39 49" fill="none" xmlns="http://www.w3.org/2000/svg">
<path d="M19.5 47C28.25 38 37 29.941 37 20C37 10.0589 29.165 2 19.5 2C9.83503 2 2 10.0589 2 20C2 29.941 10.75 38 19.5 47Z" stroke="#4AC2B3" stroke-width="3" stroke-linecap="round" stroke-linejoin="round"/>
<rect x="7" y="8" width="25" height="25" rx="12.5" fill="#4AC2B3"/>
<path d="M15.3958 19.1C16.2587 19.1 16.9583 18.4005 16.9583 17.5375C16.9583 16.6746 16.2587 15.975 15.3958 15.975C14.5328 15.975 13.8333 16.6746 13.8333 17.5375C13.8333 18.4005 14.5328 19.1 15.3958 19.1Z" fill="white"/>
<path d="M22.5624 16.4958C20.4791 16.4958 19.9583 18.5792 19.9583 18.5792H25.1666C25.1666 18.5792 24.6447 16.4958 22.5624 16.4958Z" fill="white"/>
<path d="M22.4458 21.7167C21.8709 22.2932 21.1392 22.688 20.3417 22.8521C19.7861 22.9636 19.2139 22.9636 18.6583 22.8521C18.3911 22.7967 18.1299 22.7157 17.8781 22.6105C17.631 22.5049 17.3942 22.3765 17.1708 22.2271C16.728 21.9252 16.3457 21.5429 16.0437 21.1L14.3167 22.2636C14.5406 22.5959 14.7979 22.9084 15.0802 23.1896C15.6598 23.7712 16.3485 24.2327 17.1067 24.5476C17.865 24.8626 18.678 25.0248 19.499 25.025C20.3201 25.0252 21.1331 24.8633 21.8916 24.5488C22.65 24.2342 23.3389 23.773 23.9187 23.1917C24.2021 22.9094 24.4604 22.5969 24.6833 22.2636L22.9562 21.1C22.8073 21.3198 22.6364 21.5271 22.4458 21.7167Z" fill="white"/>
</svg>
